# xmcd
#
# Track frame offsets:
#	150
#	16990
#	34311
#	50655
#	68837
#	95515
#	110652
#	130056
#	149126
#	165820
#	184539
#	203685
#	222675
#	239978
#	257023
#	274495
#	292600
#	316060
#
# Disc length: 4470 seconds
#
# Revision: 0
# Processed by: cddbd v1.5.1PL0 Copyright (c) Steve Scherf et al.
# Submitted via: dBpowerAMP V4.0
#
DISCID=15117412
DTITLE=Various Artist - Back To Black Disc 9 Black Pop And Hip Hop Culture Part 2, 1984-1991
DYEAR=2001
DGENRE=Soul
TTITLE0=Soul II Soul/Back To Life(However Do You Want Me)
TTITLE1=Womack and Womack/Teardrops
TTITLE2=Aswad/Don't Turn Around
TTITLE3=Billy Ocean/Carribean Queen(No More Love On The Run)
TTITLE4=Loose Ends/Hanging On A String(Contemplating)
TTITLE5=Ashford And Simpson/Solid
TTITLE6=Cameo/Word Up
TTITLE7=Ten City/That's The Way Love Is
TTITLE8=Guy/Do Me Right
TTITLE9=De La Soul/Eye Know
TTITLE10=N.W.A./Express Yourself
TTITLE11=A Tribe Called Quest/Senario
TTITLE12=The Family Stand/Ghetto Heaven
TTITLE13=Sounds Of Blackness/Optimistic
TTITLE14=D J Jazzy Jeff and The Fresh Prince/Summertime
TTITLE15=Maxi Priest/Close To You
TTITLE16=New Edition/If It Isn't Love
TTITLE17=Ray Patker Jr/I Don't Think That Man Should Sleep Alone
EXTD=CD number 9 in a 10 cd collection chronicling black music from 1900-1999
EXTT0=
EXTT1=
EXTT2=
EXTT3=
EXTT4=
EXTT5=
EXTT6=
EXTT7=
EXTT8=
EXTT9=
EXTT10=
EXTT11=
EXTT12=
EXTT13=
EXTT14=
EXTT15=
EXTT16=
EXTT17=
PLAYORDER=
